# xmcd CD database file
#
# Track frame offsets:
#	150
#	20495
#	46017
#	84342
#	102402
#	120765
#	160877
#
# Disc length: 2597 seconds
#
# Revision: 0
# Processed by: cddbd v1.4PL0 Copyright (c) Steve Scherf et al.
# Submitted via: CDex 1.50Beta6
#
DISCID=430a2307
DTITLE=Ida McBeth - A Gift Of Song
DYEAR=1993
DGENRE=Jazz
TTITLE0=Prayer-Reverend Cleveland McBeth
TTITLE1=Life
TTITLE2=A Change is Gonna Come
TTITLE3=Everybody's Got to Find a Way
TTITLE4=Nobody But You
TTITLE5=I Will Survive
TTITLE6=I Wish You Well
EXTD=YEAR: 1993
EXTT0=
EXTT1=
EXTT2=
EXTT3=
EXTT4=
EXTT5=
EXTT6=
PLAYORDER=
